<svg xmlns="http://www.w3.org/2000/svg" viewBox="0 0 32 32" fill="#fc7f7f" id="Arrows-Out--Streamline-Phosphor" height="32" width="32">
  <desc>
    Arrows Out Streamline Icon: https://streamlinehq.com
  </desc>
  <path d="M31.68 1.74545v8.5527375c-0.001025 1.0973125 -1.18955 1.782025 -2.1393375 1.232475 -0.439975 -0.254575 -0.7111 -0.7241625 -0.711575 -1.232475V5.18615l-7.5442125 7.546c-0.77635 0.77635 -2.102 0.4211375 -2.3861625 -0.639375 -0.131875 -0.4921875 0.0088375 -1.0173375 0.3691375 -1.37765l7.546 -7.5442125h-5.1120375c-1.0973125 -0.0010375 -1.782025 -1.18955 -1.232475 -2.1393375 0.254575 -0.439975 0.724175 -0.7111 1.232475 -0.711575h8.5527375c0.787225 0.0000375 1.42545 0.638225 1.42545 1.42545ZM10.715125 19.26785l-7.5442125 7.546v-5.1120375c-0.0010375 -1.0973125 -1.18955 -1.782025 -2.1393375 -1.232475 -0.439975 0.254575 -0.7111 0.724175 -0.711575 1.232475v8.5527375c0 0.787275 0.638175 1.4254875 1.42545 1.42545h8.5527375c1.0973125 -0.001025 1.782025 -1.18955 1.232475 -2.1393375 -0.254575 -0.439975 -0.7241625 -0.7111 -1.232475 -0.711575H5.18615l7.546 -7.5442125c0.77635 -0.77635 0.4211375 -2.102 -0.639375 -2.3861625 -0.4921875 -0.131875 -1.0173375 0.0088375 -1.37765 0.3691375Zm19.539425 1.0085125c-0.7872875 -0.0000375 -1.4254625 0.638175 -1.4254625 1.42545v5.1120375l-7.5442125 -7.546c-0.77635 -0.77635 -2.102 -0.4211375 -2.3861625 0.639375 -0.131875 0.4921875 0.0088375 1.0173375 0.3691375 1.37765l7.546 7.5442125h-5.1120375c-1.0973125 0.0010375 -1.782025 1.18955 -1.232475 2.1393375 0.254575 0.439975 0.724175 0.7111 1.232475 0.711575h8.5527375c0.787225 -0.0000375 1.42545 -0.638225 1.42545 -1.42545v-8.5527375c0 -0.787225 -0.638225 -1.4254125 -1.42545 -1.42545ZM5.18615 3.1709125h5.1120375c1.0973125 -0.0010375 1.782025 -1.18955 1.232475 -2.1393375 -0.254575 -0.439975 -0.7241625 -0.7111 -1.232475 -0.711575H1.74545C0.958175 0.3199625 0.32 0.958175 0.32 1.74545v8.5527375c0.001025 1.0973125 1.18955 1.782025 2.1393375 1.232475 0.439975 -0.254575 0.7111 -0.7241625 0.711575 -1.232475V5.18615l7.5442125 7.546c0.77635 0.77635 2.102 0.4211375 2.3861625 -0.639375 0.131875 -0.4921875 -0.0088375 -1.0173375 -0.3691375 -1.37765Z" stroke-width="0.125"></path>
</svg>