<svg xmlns="http://www.w3.org/2000/svg" viewBox="0 0 32 32" fill="#fc7f7f" id="Door--Streamline-Phosphor" height="32" width="32">
  <desc>
    Door Streamline Icon: https://streamlinehq.com
  </desc>
  <path d="M30.56 28.32H27.2V3.68c0 -1.2371125 -1.0028875 -2.24 -2.24 -2.24H7.04c-1.2371125 0 -2.24 1.0028875 -2.24 2.24v24.64H1.44c-0.862175 0 -1.4010375 0.9333375 -0.96995 1.68 0.200075 0.346525 0.5698125 0.56 0.96995 0.56h29.12c0.862175 0 1.4010375 -0.9333375 0.96995 -1.68 -0.200075 -0.346525 -0.5698125 -0.56 -0.96995 -0.56ZM7.04 3.68h17.92v24.64H7.04ZM21.6 16.56c0 1.2932625 -1.4 2.10155 -2.52 1.454925 -1.12 -0.6466375 -1.12 -2.2632125 0 -2.90985 0.2554125 -0.1474625 0.545075 -0.2250875 0.84 -0.225075 0.9278125 0.0000375 1.68 0.7521875 1.68 1.68Z" stroke-width="0.125"></path>
</svg>