<svg xmlns="http://www.w3.org/2000/svg" viewBox="0 0 32 32" fill="#fc7f7f" id="Elevator--Streamline-Phosphor" height="32" width="32">
  <desc>
    Elevator Streamline Icon: https://streamlinehq.com
  </desc>
  <path d="M29.0666625 0.32H2.9333375C1.490025 0.32 0.32 1.490025 0.32 2.9333375v26.133325c0 1.44335 1.1699875 2.6134 2.6133375 2.6133375h26.133325c1.44335 0.0000625 2.6133375 -1.1699875 2.6133375 -2.6133375V2.9333375c0 -1.4433125 -1.170025 -2.6133375 -2.6133375 -2.6133375ZM23.84 13.3866625v15.68h-6.5333375v-15.68Zm-9.1466625 15.68H8.16v-15.68h6.5333375Zm14.373325 0h-2.613325V12.08c0 -0.721625 -0.5850375 -1.3066375 -1.306675 -1.3066625H6.8533375c-0.721675 -0.0000375 -1.306675 0.5849875 -1.306675 1.3066625v16.9866625H2.9333375V2.9333375h26.133325v26.133325ZM19.92 6.8533375c0 0.721625 -0.5850375 1.306625 -1.3066625 1.3066625h-5.226675c-1.0058625 0.00005 -1.634525 -1.0888125 -1.1316375 -1.95995 0.2334125 -0.4043125 0.6648 -0.6533875 1.1316375 -0.6533875h5.226675c0.721625 0.0000375 1.3066625 0.5850375 1.3066625 1.306675Z" stroke-width="0.125"></path>
</svg>