<svg xmlns="http://www.w3.org/2000/svg" viewBox="0 0 32 32" fill="#fc7f7f" id="Info--Streamline-Phosphor" height="32" width="32">
  <desc>
    Info Streamline Icon: https://streamlinehq.com
  </desc>
  <path d="M16 0.32c-12.070475 0 -19.6145125 13.0666625 -13.579275 23.52 6.035225 10.4533375 21.1233125 10.4533375 27.15855 0C30.9554875 21.4563375 31.68 18.7524125 31.68 16 31.6708625 7.3439625 24.6560375 0.32915 16 0.32Zm0 28.9476875c-10.213475 0.0004625 -16.5968 -11.0556625 -11.49045 -19.901025 5.1063375 -8.84535 17.873175 -8.845925 22.9803125 -0.001025 1.164675 2.0170625 1.777825 4.3052 1.777825 6.6343625 -0.0083 7.3241 -5.9435875 13.259375 -13.2676875 13.2676875Zm2.4123125 -6.0307625c0 0.6661125 -0.5400375 1.206125 -1.2061625 1.20615 -1.332325 0.0000625 -2.4123 -1.0799875 -2.4123 -2.4123V16c-0.9285 0 -1.5088125 -1.005125 -1.0445625 -1.809225 0.21545 -0.373175 0.6136625 -0.6030625 1.0445625 -0.6030875 1.3323125 -0.00005 2.4123 1.0799875 2.4123 2.4123125v6.030775c0.666125 0.000025 1.2061625 0.540025 1.2061625 1.20615Zm-4.824625 -13.870775c0 -1.3927375 1.5077 -2.2632125 2.71385 -1.5668375 1.20615 0.696375 1.20615 2.4373125 0 3.1336875 -0.2750125 0.158775 -0.58705 0.242375 -0.9046125 0.2423875 -0.99925 0.0000375 -1.8092375 -0.8099875 -1.8092375 -1.8092375Z" stroke-width="0.125"></path>
</svg>