<svg xmlns="http://www.w3.org/2000/svg" viewBox="0 0 32 32" fill="#fc7f7f" id="Monitor--Streamline-Phosphor" height="32" width="32">
  <desc>
    Monitor Streamline Icon: https://streamlinehq.com
  </desc>
  <path d="M28.0615375 1.52615H3.9384625C1.939975 1.5260625 0.32 3.146125 0.32 5.1446125v16.88615c0 1.9984875 1.619975 3.6185625 3.6184625 3.6184625h24.123075c1.9983625 -0.0000875 3.6184625 -1.6201 3.6184625 -3.6184625V5.1446125c0 -1.9984125 -1.6200375 -3.6184625 -3.6184625 -3.6184625Zm1.20615 20.5046125c0 0.666125 -0.540025 1.206125 -1.20615 1.2061625H3.9384625c-0.6661625 0.000025 -1.20615 -0.54 -1.20615 -1.2061625V5.1446125c0 -0.6661375 0.5400125 -1.20615 1.20615 -1.20615h24.123075c0.6661375 0 1.20615 0.5400125 1.20615 1.20615Zm-7.2369125 7.236925c0 0.666125 -0.5400375 1.206125 -1.2061625 1.2061625H11.1753875c-0.9285 -0.00005 -1.508825 -1.0052 -1.0445375 -1.8092875 0.2154625 -0.3731375 0.61365 -0.603 1.0445375 -0.603025h9.649225c0.666125 0.000025 1.2061625 0.5400375 1.2061625 1.20615Z" stroke-width="0.125"></path>
</svg>