<svg xmlns="http://www.w3.org/2000/svg" viewBox="0 0 32 32" fill="#fc7f7f" id="Number-Circle-Zero--Streamline-Phosphor" height="32" width="32">
  <desc>
    Number Circle Zero Streamline Icon: https://streamlinehq.com
  </desc>
  <path d="M16 0.32c-12.070475 0 -19.6145125 13.0666625 -13.579275 23.52 6.035225 10.4533375 21.1233125 10.4533375 27.15855 0C30.9554875 21.4563375 31.68 18.7524125 31.68 16 31.6708625 7.3439625 24.6560375 0.32915 16 0.32Zm0 28.9476875c-10.213475 0.0004625 -16.5968 -11.0556625 -11.49045 -19.901025 5.1063375 -8.84535 17.873175 -8.845925 22.9803125 -0.001025 1.164675 2.0170625 1.777825 4.3052 1.777825 6.6343625 -0.0083 7.3241 -5.9435875 13.259375 -13.2676875 13.2676875Zm0 -21.7107625c-2.14545 0 -3.92 0.97095 -5.12615 2.8058125C9.8983625 11.849325 9.36615 13.8515375 9.36615 16s0.5367375 4.150675 1.5077 5.6372625C12.08 23.473625 13.850025 24.443075 16 24.443075s3.92 -0.96945 5.12615 -2.8058125c0.975475 -1.4865875 1.5077 -3.4888 1.5077 -5.6372625s-0.5367375 -4.150675 -1.5077 -5.6372625C19.92 8.527875 18.14545 7.556925 16 7.556925Zm0 14.47385c-3.332 0 -4.2215375 -3.79035 -4.2215375 -6.030775S12.668 9.9692375 16 9.9692375 20.2215375 13.759575 20.2215375 16 19.332 22.030775 16 22.030775Z" stroke-width="0.125"></path>
</svg>