<svg xmlns="http://www.w3.org/2000/svg" viewBox="0 0 32 32" fill="#fc7f7f" id="Letter-Circle-P--Streamline-Phosphor" height="32" width="32">
  <desc>
    Letter Circle P Streamline Icon: https://streamlinehq.com
  </desc>
  <path d="M16 0.32c-12.070475 0 -19.6145125 13.0666625 -13.579275 23.52 6.035225 10.4533375 21.1233125 10.4533375 27.15855 0C30.9554875 21.4563375 31.68 18.7524125 31.68 16 31.6708625 7.3439625 24.6560375 0.32915 16 0.32Zm0 28.9476875c-10.213475 0.0004625 -16.5968 -11.0556625 -11.49045 -19.901025 5.1063375 -8.84535 17.873175 -8.845925 22.9803125 -0.001025 1.164675 2.0170625 1.777825 4.3052 1.777825 6.6343625 -0.0083 7.3241 -5.9435875 13.259375 -13.2676875 13.2676875Zm1.20615 -20.5046125H12.3815375c-0.6661625 -0.000025 -1.20615 0.54 -1.20615 1.20615v12.06155c0 0.9284875 1.005125 1.5088 1.809225 1.04455 0.3731875 -0.21545 0.603075 -0.6136375 0.603075 -1.04455v-2.4123125h3.6184625c4.1782375 -0.0001875 6.7896875 -4.523375 4.7004 -8.14175 -0.9696 -1.6792125 -2.76135 -2.7136375 -4.7004 -2.7136375Zm0 8.443075h-3.6184625V11.1753875h3.6184625c2.32125 0.0015 3.7704125 2.51525 2.6084875 4.5247625 -0.53855 0.9314125 -1.532575 1.5053125 -2.6084875 1.506Z" stroke-width="0.125"></path>
</svg>