<svg xmlns="http://www.w3.org/2000/svg" viewBox="0 0 32 32" fill="#8eef97" id="Device-Tablet-Speaker--Streamline-Phosphor" height="32" width="32">
  <desc>
    Device Tablet Speaker Streamline Icon: https://streamlinehq.com
  </desc>
  <path d="M25.649225 0.32H6.350775c-1.998425 0 -3.6184625 1.6200375 -3.6184625 3.6184625v24.123075c0 1.998425 1.6200375 3.6184625 3.6184625 3.6184625h19.29845c1.9983625 -0.0000875 3.6184625 -1.6201 3.6184625 -3.6184625V3.9384625c0 -1.998425 -1.6200375 -3.6184625 -3.6184625 -3.6184625Zm1.2061625 27.7415375c0 0.666125 -0.5400375 1.206125 -1.2061625 1.20615H6.350775c-0.6661625 0.0000375 -1.2061625 -0.5399875 -1.2061625 -1.20615V3.9384625c0 -0.6661625 0.54 -1.2061875 1.2061625 -1.20615h19.29845c0.66615 0 1.2061625 0.5400125 1.2061625 1.20615ZM22.030775 6.350775c0 0.6661375 -0.5400125 1.20615 -1.2061625 1.20615H11.1753875c-0.9285 0 -1.5088125 -1.005125 -1.0445625 -1.8092375 0.21545 -0.3731625 0.6136625 -0.60305 1.0445625 -0.603075h9.649225c0.666125 0.0000375 1.2061625 0.5400375 1.2061625 1.2061625Z" stroke-width="0.125"></path>
</svg>