<svg xmlns="http://www.w3.org/2000/svg" viewBox="0 0 16 16" fill="#fc7f7f" id="Door--Streamline-Phosphor" height="16" width="16">
  <desc>
    Door Streamline Icon: https://streamlinehq.com
  </desc>
  <path d="M15.28 14.16H13.6V1.84c0 -0.61855625 -0.50144375 -1.12 -1.12 -1.12H3.52c-0.61855625 0 -1.12 0.50144375 -1.12 1.12v12.32H0.72c-0.4310875 0 -0.70051875 0.46666875 -0.484975 0.84 0.1000375 0.1732625 0.28490625 0.28 0.484975 0.28h14.56c0.4310875 0 0.70051875 -0.46666875 0.484975 -0.84 -0.1000375 -0.1732625 -0.28490625 -0.28 -0.484975 -0.28ZM3.52 1.84h8.96v12.32H3.52ZM10.8 8.28c0 0.64663125 -0.7 1.050775 -1.26 0.7274625 -0.56 -0.32331875 -0.56 -1.13160625 0 -1.454925 0.12770625 -0.07373125 0.2725375 -0.11254375 0.42 -0.1125375 0.46390625 0.00001875 0.84 0.37609375 0.84 0.84Z" stroke-width="0.0625"></path>
</svg>