<svg xmlns="http://www.w3.org/2000/svg" viewBox="0 0 16 16" fill="#fc7f7f" id="Elevator--Streamline-Phosphor" height="16" width="16">
  <desc>
    Elevator Streamline Icon: https://streamlinehq.com
  </desc>
  <path d="M14.53333125 0.16H1.46666875C0.7450125 0.16 0.16 0.7450125 0.16 1.46666875v13.0666625c0 0.721675 0.58499375 1.3067 1.30666875 1.30666875h13.0666625c0.721675 0.00003125 1.30666875 -0.58499375 1.30666875 -1.30666875V1.46666875c0 -0.72165625 -0.5850125 -1.30666875 -1.30666875 -1.30666875ZM11.92 6.69333125v7.84h-3.26666875v-7.84Zm-4.57333125 7.84H4.08v-7.84h3.26666875Zm7.1866625 0h-1.3066625V6.04c0 -0.3608125 -0.29251875 -0.65331875 -0.6533375 -0.65333125H3.42666875c-0.3608375 -0.00001875 -0.6533375 0.29249375 -0.6533375 0.65333125v8.49333125H1.46666875V1.46666875h13.0666625v13.0666625ZM9.96 3.42666875c0 0.3608125 -0.29251875 0.6533125 -0.65333125 0.65333125h-2.6133375c-0.50293125 0.000025 -0.8172625 -0.54440625 -0.56581875 -0.979975 0.11670625 -0.20215625 0.3324 -0.32669375 0.56581875 -0.32669375h2.6133375c0.3608125 0.00001875 0.65333125 0.29251875 0.65333125 0.6533375Z" stroke-width="0.0625"></path>
</svg>