<svg xmlns="http://www.w3.org/2000/svg" viewBox="0 0 16 16" fill="#fc7f7f" id="Number-Circle-Zero--Streamline-Phosphor" height="16" width="16">
  <desc>
    Number Circle Zero Streamline Icon: https://streamlinehq.com
  </desc>
  <path d="M8 0.16c-6.0352375 0 -9.80725625 6.53333125 -6.7896375 11.76 3.0176125 5.22666875 10.56165625 5.22666875 13.579275 0C15.47774375 10.72816875 15.84 9.37620625 15.84 8 15.83543125 3.67198125 12.32801875 0.164575 8 0.16Zm0 14.47384375c-5.1067375 0.00023125 -8.2984 -5.52783125 -5.745225 -9.9505125 2.55316875 -4.422675 8.9365875 -4.4229625 11.49015625 -0.0005125 0.5823375 1.00853125 0.8889125 2.1526 0.8889125 3.31718125 -0.00415 3.66205 -2.97179375 6.6296875 -6.63384375 6.63384375Zm0 -10.85538125c-1.072725 0 -1.96 0.485475 -2.563075 1.40290625C4.94918125 5.9246625 4.683075 6.92576875 4.683075 8s0.26836875 2.0753375 0.75385 2.81863125C6.04 11.7368125 6.9250125 12.2215375 8 12.2215375s1.96 -0.484725 2.563075 -1.40290625c0.4877375 -0.74329375 0.75385 -1.7444 0.75385 -2.81863125s-0.26836875 -2.0753375 -0.75385 -2.81863125C9.96 4.2639375 9.072725 3.7784625 8 3.7784625Zm0 7.236925c-1.666 0 -2.11076875 -1.895175 -2.11076875 -3.0153875S6.334 4.98461875 8 4.98461875 10.11076875 6.8797875 10.11076875 8 9.666 11.0153875 8 11.0153875Z" stroke-width="0.0625"></path>
</svg>