<svg xmlns="http://www.w3.org/2000/svg" viewBox="0 0 16 16" fill="#fc7f7f" id="Letter-Circle-P--Streamline-Phosphor" height="16" width="16">
  <desc>
    Letter Circle P Streamline Icon: https://streamlinehq.com
  </desc>
  <path d="M8 0.16c-6.0352375 0 -9.80725625 6.53333125 -6.7896375 11.76 3.0176125 5.22666875 10.56165625 5.22666875 13.579275 0C15.47774375 10.72816875 15.84 9.37620625 15.84 8 15.83543125 3.67198125 12.32801875 0.164575 8 0.16Zm0 14.47384375c-5.1067375 0.00023125 -8.2984 -5.52783125 -5.745225 -9.9505125 2.55316875 -4.422675 8.9365875 -4.4229625 11.49015625 -0.0005125 0.5823375 1.00853125 0.8889125 2.1526 0.8889125 3.31718125 -0.00415 3.66205 -2.97179375 6.6296875 -6.63384375 6.63384375Zm0.603075 -10.25230625H6.19076875c-0.33308125 -0.0000125 -0.603075 0.27 -0.603075 0.603075v6.030775c0 0.46424375 0.5025625 0.7544 0.9046125 0.522275 0.18659375 -0.107725 0.3015375 -0.30681875 0.3015375 -0.522275v-1.20615625h1.80923125c2.08911875 -0.00009375 3.39484375 -2.2616875 2.3502 -4.070875 -0.4848 -0.83960625 -1.380675 -1.35681875 -2.3502 -1.35681875Zm0 4.2215375h-1.80923125V5.58769375h1.80923125c1.160625 0.00075 1.88520625 1.257625 1.30424375 2.26238125 -0.269275 0.46570625 -0.7662875 0.75265625 -1.30424375 0.753Z" stroke-width="0.0625"></path>
</svg>